<?xml version="1.0" standalone="no"?>
<!DOCTYPE svg PUBLIC "-//W3C//DTD SVG 20010904//EN"
 "http://www.w3.org/TR/2001/REC-SVG-20010904/DTD/svg10.dtd">
<svg version="1.0" xmlns="http://www.w3.org/2000/svg"
 width="1200.000000pt" height="1042.000000pt" viewBox="0 0 1200.000000 1042.000000"
 preserveAspectRatio="xMidYMid meet">

<g transform="translate(0.000000,1042.000000) scale(0.100000,-0.100000)"
fill="#000000" stroke="none">
<path d="M3035 8050 c-12 -20 7 -30 58 -30 120 -1 261 -74 387 -201 108 -108
160 -195 250 -419 39 -96 137 -337 217 -535 80 -198 197 -488 260 -645 142
-350 146 -365 147 -470 0 -75 -3 -93 -31 -150 -54 -114 -143 -178 -260 -188
-54 -4 -63 -8 -63 -24 0 -11 4 -16 10 -13 17 10 170 -15 237 -40 192 -69 396
-250 486 -430 13 -27 109 -261 211 -520 103 -258 293 -737 423 -1062 l237
-593 531 0 532 0 -159 393 c-87 215 -242 597 -343 847 -101 250 -226 560 -278
688 -121 298 -179 388 -325 504 -149 118 -296 184 -434 195 -78 6 -78 6 -78
34 0 28 2 29 48 29 201 0 341 186 302 401 -7 40 -135 372 -344 894 -183 457
-338 851 -345 877 -26 109 -7 215 55 305 47 69 136 115 231 121 54 4 63 7 63
23 0 18 -27 19 -1009 19 -663 0 -1012 -3 -1016 -10z"/>
<path d="M6595 8050 c-12 -19 5 -27 69 -32 114 -10 207 -72 257 -174 36 -74
39 -205 7 -300 -13 -38 -176 -448 -363 -912 l-338 -843 243 -627 c295 -760
270 -700 280 -682 4 8 254 629 555 1380 301 751 576 1437 612 1525 100 249
164 351 284 457 120 106 242 165 369 176 57 5 75 11 75 22 0 13 -121 15 -1022
18 -676 1 -1024 -1 -1028 -8z"/>
</g>
</svg>
